<svg width="60" height="62" viewBox="0 0 60 62" fill="none" xmlns="http://www.w3.org/2000/svg">
<path d="M11.7955 49.4432L11.8239 34.9261H13.5852L27.5625 18.3636H41.4545L22.6761 40.2955H19.8068L11.7955 49.4432ZM0.829546 62V3.81818H12.9318V62H0.829546ZM28.1023 62L15.2614 42.9943L23.3295 34.4432L42.2784 62H28.1023ZM47.392 62V18.3636H59.4943V62H47.392ZM53.4716 12.7386C51.6723 12.7386 50.1288 12.142 48.8409 10.9489C47.572 9.73674 46.9375 8.28788 46.9375 6.60227C46.9375 4.9356 47.572 3.50568 48.8409 2.3125C50.1288 1.10038 51.6723 0.494315 53.4716 0.494315C55.2708 0.494315 56.8049 1.10038 58.0739 2.3125C59.3617 3.50568 60.0057 4.9356 60.0057 6.60227C60.0057 8.28788 59.3617 9.73674 58.0739 10.9489C56.8049 12.142 55.2708 12.7386 53.4716 12.7386Z" fill="#FF8904"/>
</svg>
